<svg xmlns="http://www.w3.org/2000/svg" viewBox="0 0 1420 560" role="img" aria-labelledby="t d">
  <title id="t">System level diagram</title>
  <desc id="d">External solar and wall adaptor OR into USB-C, embed solar through boost, dual PMOS switches into charger, system, fuel gauge, and 4-cell pack.</desc>
  <rect width="1420" height="560" fill="#071422"/>

  <text x="710" y="28" text-anchor="middle" fill="#f6e7b0" font-family="ui-monospace, SFMono-Regular, Menlo, monospace" font-size="18" font-weight="700" letter-spacing="2.2">SYSTEM LEVEL DIAGRAM</text>
  <text x="710" y="48" text-anchor="middle" fill="#c17f4a" font-family="ui-monospace, SFMono-Regular, Menlo, monospace" font-size="12" letter-spacing="1">Solana Solar/PA charging logic</text>

  <text x="176" y="78" text-anchor="middle" fill="#7cb88a" font-family="ui-monospace, SFMono-Regular, Menlo, monospace" font-size="11">Z=15kohm</text>
  <rect x="36" y="86" width="280" height="86" fill="#3d3420" stroke="#d4b45a" stroke-width="1.4"/>
  <text x="176" y="116" text-anchor="middle" fill="#f2f4f6" font-family="system-ui, sans-serif" font-size="15" font-weight="700">External Solar Panel</text>
  <text x="176" y="140" text-anchor="middle" fill="#c9c3a8" font-family="ui-monospace, SFMono-Regular, Menlo, monospace" font-size="12">8.5 Voc, 6.9 Vmpp, 0.56A Impp</text>

  <text x="176" y="198" text-anchor="middle" fill="#7cb88a" font-family="ui-monospace, SFMono-Regular, Menlo, monospace" font-size="11">Z=No imp.</text>
  <rect x="36" y="206" width="280" height="72" fill="#152433" stroke="#5b8fb8" stroke-width="1.4"/>
  <text x="176" y="236" text-anchor="middle" fill="#f2f4f6" font-family="system-ui, sans-serif" font-size="15" font-weight="700">Wall Adaptor</text>
  <text x="176" y="258" text-anchor="middle" fill="#8b97a5" font-family="ui-monospace, SFMono-Regular, Menlo, monospace" font-size="12">5V/2A or 6.6V/1A</text>

  <path fill="none" d="M316 129 H340 V205" fill="none" stroke="#e8eef4" stroke-width="1.6"/>
  <path fill="none" d="M316 242 H340 V205" fill="none" stroke="#e8eef4" stroke-width="1.6"/>
  <circle cx="358" cy="205" r="16" fill="#121821" stroke="#e8eef4" stroke-width="1.4"/>
  <text x="358" y="210" text-anchor="middle" fill="#f2f4f6" font-family="ui-monospace, SFMono-Regular, Menlo, monospace" font-size="11" font-weight="700">OR</text>
  <path fill="none" d="M374 205 H392" stroke="#e8eef4" stroke-width="1.6"/>
  <polygon points="392,201 404,205 392,209" fill="#e8eef4"/>

  <rect x="404" y="180" width="122" height="50" fill="#121821" stroke="rgba(255,255,255,0.22)" stroke-width="1.2"/>
  <text x="465" y="210" text-anchor="middle" fill="#f2f4f6" font-family="system-ui, sans-serif" font-size="13" font-weight="700">USB-C Conn.</text>

  <path fill="none" d="M526 205 H628" stroke="#e8eef4" stroke-width="1.8"/>
  <text x="548" y="196" fill="#e8eef4" font-family="ui-monospace, SFMono-Regular, Menlo, monospace" font-size="12">Vin1</text>
  <polygon points="628,201 640,205 628,209" fill="#e8eef4"/>

  <rect x="640" y="170" width="200" height="70" fill="#121821" stroke="rgba(255,255,255,0.28)" stroke-width="1.4"/>
  <text x="740" y="200" text-anchor="middle" fill="#f2f4f6" font-family="system-ui, sans-serif" font-size="14" font-weight="700">USB-C SWITCH</text>
  <text x="740" y="220" text-anchor="middle" fill="#8b97a5" font-family="ui-monospace, SFMono-Regular, Menlo, monospace" font-size="12">(Q1+Q2)</text>

  <path fill="none" d="M568 205 V116 H590" stroke="#6ea8d6" stroke-width="1.4"/>
  <polygon points="590,112 602,116 590,120" fill="#6ea8d6"/>
  <rect x="602" y="96" width="148" height="40" fill="#3d3420" stroke="#e6c35c" stroke-width="1.2"/>
  <text x="676" y="121" text-anchor="middle" fill="#f6e7b0" font-family="system-ui, sans-serif" font-size="13" font-weight="700">Voltage divider</text>
  <path fill="none" d="M750 116 H772" stroke="#6ea8d6" stroke-width="1.4"/>
  <polygon points="772,112 784,116 772,120" fill="#6ea8d6"/>
  <rect x="784" y="96" width="118" height="40" fill="#3d3420" stroke="#e6c35c" stroke-width="1.2"/>
  <text x="843" y="121" text-anchor="middle" fill="#f6e7b0" font-family="ui-monospace, SFMono-Regular, Menlo, monospace" font-size="12" font-weight="700">HW_EM_SP</text>
  <path fill="none" d="M902 116 H920 V352" stroke="#6ea8d6" stroke-width="1.3" stroke-dasharray="4 3"/>
  <path fill="none" d="M920 352 H750" stroke="#6ea8d6" stroke-width="1.3" stroke-dasharray="4 3"/>
  <polygon points="750,348 738,352 750,356" fill="#6ea8d6"/>

  <rect x="672" y="250" width="136" height="34" fill="#1d3224" stroke="#7cb88a" stroke-width="1.2"/>
  <text x="740" y="272" text-anchor="middle" fill="#c8efd2" font-family="ui-monospace, SFMono-Regular, Menlo, monospace" font-size="11" font-weight="700">P2_5_FW_Ctrl</text>
  <path fill="none" d="M740 250 V244" stroke="#6ea8d6" stroke-width="1.4"/>
  <polygon points="736,244 740,234 744,244" fill="#6ea8d6"/>

  <path fill="none" d="M568 205 V252" stroke="#6ea8d6" stroke-width="1.4"/>
  <polygon points="564,252 568,264 572,252" fill="#6ea8d6"/>
  <rect x="473" y="264" width="190" height="50" rx="4" fill="#102030" stroke="#6ea8d6" stroke-width="1.2"/>
  <text x="568" y="284" text-anchor="middle" fill="#9cc7e8" font-family="ui-monospace, SFMono-Regular, Menlo, monospace" font-size="11" font-weight="700">Vin1_ADC to MCU</text>
  <text x="568" y="302" text-anchor="middle" fill="#6ea8d6" font-family="ui-monospace, SFMono-Regular, Menlo, monospace" font-size="10">divider max &lt; 3.3V</text>

  <rect x="36" y="328" width="308" height="100" fill="#3d3420" stroke="#d4b45a" stroke-width="1.4"/>
  <text x="190" y="358" text-anchor="middle" fill="#f2f4f6" font-family="system-ui, sans-serif" font-size="15" font-weight="700">Embed Solar Panel</text>
  <text x="190" y="384" text-anchor="middle" fill="#c9c3a8" font-family="ui-monospace, SFMono-Regular, Menlo, monospace" font-size="11">1-5S4P: 3.5 Voc, 2.6 Vmpp, 0.35A Impp</text>
  <text x="190" y="406" text-anchor="middle" fill="#c9c3a8" font-family="ui-monospace, SFMono-Regular, Menlo, monospace" font-size="11">2-4S5P: 3.3 Voc, 2.8 Vmpp, 0.32A Impp</text>

  <text x="360" y="370" fill="#e06c6c" font-family="ui-monospace, SFMono-Regular, Menlo, monospace" font-size="12">Vin2</text>
  <path fill="none" d="M344 381 H368" stroke="#e06c6c" stroke-width="1.8"/>
  <polygon points="368,377 380,381 368,385" fill="#e06c6c"/>

  <rect x="380" y="344" width="232" height="74" fill="#121821" stroke="#e06c6c" stroke-width="1.4"/>
  <text x="496" y="368" text-anchor="middle" fill="#f2f4f6" font-family="system-ui, sans-serif" font-size="13" font-weight="700">Boost con. TLV61070A</text>
  <text x="496" y="386" text-anchor="middle" fill="#8b97a5" font-family="ui-monospace, SFMono-Regular, Menlo, monospace" font-size="11">SOT23-6</text>
  <text x="496" y="404" text-anchor="middle" fill="#e06c6c" font-family="ui-monospace, SFMono-Regular, Menlo, monospace" font-size="11">Set Vout = 4.515V</text>

  <path fill="none" d="M612 381 H640" stroke="#e06c6c" stroke-width="1.8"/>
  <polygon points="640,377 652,381 640,385" fill="#e06c6c"/>

  <rect x="652" y="346" width="176" height="70" fill="#121821" stroke="#e06c6c" stroke-width="1.4"/>
  <text x="740" y="376" text-anchor="middle" fill="#f2f4f6" font-family="system-ui, sans-serif" font-size="13" font-weight="700">EMBED SP SWITCH</text>
  <text x="740" y="396" text-anchor="middle" fill="#e06c6c" font-family="ui-monospace, SFMono-Regular, Menlo, monospace" font-size="12">(Q4+Q5)</text>

  <rect x="672" y="430" width="136" height="34" fill="#1d3224" stroke="#7cb88a" stroke-width="1.2"/>
  <text x="740" y="452" text-anchor="middle" fill="#c8efd2" font-family="ui-monospace, SFMono-Regular, Menlo, monospace" font-size="11" font-weight="700">P2_4_FW_Ctrl</text>
  <path fill="none" d="M740 430 V416" stroke="#6ea8d6" stroke-width="1.4"/>
  <polygon points="736,416 740,406 744,416" fill="#6ea8d6"/>

  <path fill="none" d="M358 381 V470 H248" stroke="#6ea8d6" stroke-width="1.4"/>
  <polygon points="248,466 236,470 248,474" fill="#6ea8d6"/>
  <rect x="48" y="448" width="188" height="50" rx="4" fill="#102030" stroke="#6ea8d6" stroke-width="1.2"/>
  <text x="142" y="468" text-anchor="middle" fill="#9cc7e8" font-family="ui-monospace, SFMono-Regular, Menlo, monospace" font-size="11" font-weight="700">Vin2_ADC to MCU</text>
  <text x="142" y="486" text-anchor="middle" fill="#6ea8d6" font-family="ui-monospace, SFMono-Regular, Menlo, monospace" font-size="10">divider max &lt; 3.3V</text>

  <path fill="none" d="M840 205 H878 V292" fill="none" stroke="#e8eef4" stroke-width="1.6"/>
  <path fill="none" d="M828 381 H878 V292" fill="none" stroke="#e06c6c" stroke-width="1.8"/>
  <text x="888" y="280" fill="#f2f4f6" font-family="ui-monospace, SFMono-Regular, Menlo, monospace" font-size="12">Vin_chg</text>
  <text x="888" y="296" fill="#8b97a5" font-family="ui-monospace, SFMono-Regular, Menlo, monospace" font-size="11">4.5-5.6V</text>
  <path fill="none" d="M878 292 H978" stroke="#e8eef4" stroke-width="1.8"/>
  <polygon points="978,288 990,292 978,296" fill="#e8eef4"/>

  <rect x="990" y="258" width="216" height="68" rx="8" fill="#1b2430" stroke="rgba(255,255,255,0.22)" stroke-width="1.4"/>
  <text x="1098" y="286" text-anchor="middle" fill="#f2f4f6" font-family="system-ui, sans-serif" font-size="15" font-weight="700">Charger</text>
  <text x="1098" y="308" text-anchor="middle" fill="#8b97a5" font-family="ui-monospace, SFMono-Regular, Menlo, monospace" font-size="12">BQ25892RTWT</text>

  <path fill="none" d="M1098 258 V230" stroke="#e8eef4" stroke-width="1.6"/>
  <polygon points="1094,230 1098,218 1102,230" fill="#e8eef4"/>
  <rect x="990" y="148" width="216" height="70" rx="8" fill="#1b2430" stroke="rgba(255,255,255,0.22)" stroke-width="1.4"/>
  <text x="1098" y="176" text-anchor="middle" fill="#f2f4f6" font-family="system-ui, sans-serif" font-size="14" font-weight="700">SYSTEM (swallow)</text>
  <text x="1098" y="198" text-anchor="middle" fill="#8b97a5" font-family="ui-monospace, SFMono-Regular, Menlo, monospace" font-size="12">charger SYS output</text>

  <path fill="none" d="M1098 326 V356" stroke="#e8eef4" stroke-width="1.6"/>
  <text x="1108" y="348" fill="#e8eef4" font-family="ui-monospace, SFMono-Regular, Menlo, monospace" font-size="12">Ichg</text>
  <polygon points="1094,356 1098,368 1102,356" fill="#e8eef4"/>
  <rect x="990" y="368" width="216" height="70" rx="8" fill="#1b2430" stroke="rgba(255,255,255,0.22)" stroke-width="1.4"/>
  <text x="1098" y="396" text-anchor="middle" fill="#f2f4f6" font-family="system-ui, sans-serif" font-size="14" font-weight="700">FG BQ27426YZFR</text>
  <text x="1098" y="418" text-anchor="middle" fill="#8b97a5" font-family="ui-monospace, SFMono-Regular, Menlo, monospace" font-size="12">fuel gauge</text>

  <path fill="none" d="M1098 438 V466" stroke="#e8eef4" stroke-width="1.6"/>
  <polygon points="1094,466 1098,478 1102,466" fill="#e8eef4"/>
  <rect x="972" y="478" width="252" height="64" rx="8" fill="#1b2430" stroke="#c17f4a" stroke-width="1.4"/>
  <text x="1098" y="502" text-anchor="middle" fill="#f2f4f6" font-family="system-ui, sans-serif" font-size="15" font-weight="700">Battery · 4 Battery Pack</text>
  <text x="1098" y="524" text-anchor="middle" fill="#8b97a5" font-family="ui-monospace, SFMono-Regular, Menlo, monospace" font-size="12">3.69V/18.6AhPack, 68.634Wh</text>
</svg>
